<svg xmlns="http://www.w3.org/2000/svg" viewBox="0 0 1600 1000" width="1600" height="1000" role="img" aria-label="Lappeland placeholder artwork">
  <defs>
    <linearGradient id="g1034s" x1="0" y1="0" x2="1" y2="1">
      <stop offset="0%" stop-color="#f7c47a"/>
      <stop offset="100%" stop-color="#ff6b57"/>
    </linearGradient>
    <radialGradient id="g1034r" cx="0.57" cy="0.37" r="0.75">
      <stop offset="0%" stop-color="#f7c47a" stop-opacity="0.42"/>
      <stop offset="55%" stop-color="#ff6b57" stop-opacity="0.14"/>
      <stop offset="100%" stop-color="#05060a" stop-opacity="0"/>
    </radialGradient>
    <filter id="g1034n">
      <feTurbulence type="fractalNoise" baseFrequency="0.9" numOctaves="3" stitchTiles="stitch"/>
      <feColorMatrix type="saturate" values="0"/>
    </filter>
  </defs>

  <rect width="1600" height="1000" fill="#080a10"/>
  <line x1="0.0" y1="0" x2="0.0" y2="1000" stroke="#ffffff" stroke-width="0.5" opacity="0.045"/><line x1="133.3" y1="0" x2="133.3" y2="1000" stroke="#ffffff" stroke-width="0.5" opacity="0.045"/><line x1="266.7" y1="0" x2="266.7" y2="1000" stroke="#ffffff" stroke-width="0.5" opacity="0.045"/><line x1="400.0" y1="0" x2="400.0" y2="1000" stroke="#ffffff" stroke-width="0.5" opacity="0.045"/><line x1="533.3" y1="0" x2="533.3" y2="1000" stroke="#ffffff" stroke-width="0.5" opacity="0.045"/><line x1="666.7" y1="0" x2="666.7" y2="1000" stroke="#ffffff" stroke-width="0.5" opacity="0.045"/><line x1="800.0" y1="0" x2="800.0" y2="1000" stroke="#ffffff" stroke-width="0.5" opacity="0.045"/><line x1="933.3" y1="0" x2="933.3" y2="1000" stroke="#ffffff" stroke-width="0.5" opacity="0.045"/><line x1="1066.7" y1="0" x2="1066.7" y2="1000" stroke="#ffffff" stroke-width="0.5" opacity="0.045"/><line x1="1200.0" y1="0" x2="1200.0" y2="1000" stroke="#ffffff" stroke-width="0.5" opacity="0.045"/><line x1="1333.3" y1="0" x2="1333.3" y2="1000" stroke="#ffffff" stroke-width="0.5" opacity="0.045"/><line x1="1466.7" y1="0" x2="1466.7" y2="1000" stroke="#ffffff" stroke-width="0.5" opacity="0.045"/>
  <rect width="1600" height="1000" fill="url(#g1034r)"/>
  <g><circle cx="800" cy="500" r="140.0" fill="none" stroke="url(#g1034s)" stroke-width="1.40" opacity="0.500"/><circle cx="800" cy="500" r="195.0" fill="none" stroke="url(#g1034s)" stroke-width="1.28" opacity="0.445"/><circle cx="800" cy="500" r="250.0" fill="none" stroke="url(#g1034s)" stroke-width="1.16" opacity="0.390"/><circle cx="800" cy="500" r="305.0" fill="none" stroke="url(#g1034s)" stroke-width="1.04" opacity="0.335"/><circle cx="800" cy="500" r="360.0" fill="none" stroke="url(#g1034s)" stroke-width="0.92" opacity="0.280"/><circle cx="800" cy="500" r="415.0" fill="none" stroke="url(#g1034s)" stroke-width="0.80" opacity="0.225"/><circle cx="800" cy="500" r="470.0" fill="none" stroke="url(#g1034s)" stroke-width="0.68" opacity="0.170"/><rect x="30.8" y="540.0" width="2" height="460.0" fill="url(#g1034s)" opacity="0.328"/><rect x="92.3" y="529.6" width="2" height="470.4" fill="url(#g1034s)" opacity="0.400"/><rect x="153.8" y="608.3" width="2" height="391.7" fill="url(#g1034s)" opacity="0.259"/><rect x="215.4" y="810.1" width="2" height="189.9" fill="url(#g1034s)" opacity="0.299"/><rect x="276.9" y="580.7" width="2" height="419.3" fill="url(#g1034s)" opacity="0.241"/><rect x="338.5" y="644.7" width="2" height="355.3" fill="url(#g1034s)" opacity="0.209"/><rect x="400.0" y="682.6" width="2" height="317.4" fill="url(#g1034s)" opacity="0.143"/><rect x="461.5" y="469.9" width="2" height="530.1" fill="url(#g1034s)" opacity="0.266"/><rect x="523.1" y="784.5" width="2" height="215.5" fill="url(#g1034s)" opacity="0.353"/><rect x="584.6" y="424.8" width="2" height="575.2" fill="url(#g1034s)" opacity="0.195"/><rect x="646.2" y="722.9" width="2" height="277.1" fill="url(#g1034s)" opacity="0.153"/><rect x="707.7" y="684.1" width="2" height="315.9" fill="url(#g1034s)" opacity="0.376"/><rect x="769.2" y="904.6" width="2" height="95.4" fill="url(#g1034s)" opacity="0.324"/><rect x="830.8" y="526.4" width="2" height="473.6" fill="url(#g1034s)" opacity="0.222"/><rect x="892.3" y="629.4" width="2" height="370.6" fill="url(#g1034s)" opacity="0.383"/><rect x="953.8" y="730.3" width="2" height="269.7" fill="url(#g1034s)" opacity="0.318"/><rect x="1015.4" y="914.6" width="2" height="85.4" fill="url(#g1034s)" opacity="0.325"/><rect x="1076.9" y="479.9" width="2" height="520.1" fill="url(#g1034s)" opacity="0.306"/><rect x="1138.5" y="610.4" width="2" height="389.6" fill="url(#g1034s)" opacity="0.364"/><rect x="1200.0" y="588.5" width="2" height="411.5" fill="url(#g1034s)" opacity="0.249"/><rect x="1261.5" y="602.9" width="2" height="397.1" fill="url(#g1034s)" opacity="0.196"/><rect x="1323.1" y="622.2" width="2" height="377.8" fill="url(#g1034s)" opacity="0.175"/><rect x="1384.6" y="747.1" width="2" height="252.9" fill="url(#g1034s)" opacity="0.103"/><rect x="1446.2" y="489.1" width="2" height="510.9" fill="url(#g1034s)" opacity="0.167"/><rect x="1507.7" y="605.6" width="2" height="394.4" fill="url(#g1034s)" opacity="0.322"/><rect x="1569.2" y="694.0" width="2" height="306.0" fill="url(#g1034s)" opacity="0.266"/></g>
  <rect width="1600" height="1000" filter="url(#g1034n)" opacity="0.06"/>

  <!-- No baked-in label: project titles are rendered as HTML over the image. -->
</svg>
