<svg xmlns="http://www.w3.org/2000/svg" viewBox="0 0 1600 1000" width="1600" height="1000" role="img" aria-label="Neonbit placeholder artwork">
  <defs>
    <linearGradient id="g1068s" x1="0" y1="0" x2="1" y2="1">
      <stop offset="0%" stop-color="#a8b6ff"/>
      <stop offset="100%" stop-color="#6ee7ff"/>
    </linearGradient>
    <radialGradient id="g1068r" cx="0.50" cy="0.58" r="0.75">
      <stop offset="0%" stop-color="#a8b6ff" stop-opacity="0.42"/>
      <stop offset="55%" stop-color="#6ee7ff" stop-opacity="0.14"/>
      <stop offset="100%" stop-color="#05060a" stop-opacity="0"/>
    </radialGradient>
    <filter id="g1068n">
      <feTurbulence type="fractalNoise" baseFrequency="0.9" numOctaves="3" stitchTiles="stitch"/>
      <feColorMatrix type="saturate" values="0"/>
    </filter>
  </defs>

  <rect width="1600" height="1000" fill="#080a10"/>
  <line x1="0.0" y1="0" x2="0.0" y2="1000" stroke="#ffffff" stroke-width="0.5" opacity="0.045"/><line x1="133.3" y1="0" x2="133.3" y2="1000" stroke="#ffffff" stroke-width="0.5" opacity="0.045"/><line x1="266.7" y1="0" x2="266.7" y2="1000" stroke="#ffffff" stroke-width="0.5" opacity="0.045"/><line x1="400.0" y1="0" x2="400.0" y2="1000" stroke="#ffffff" stroke-width="0.5" opacity="0.045"/><line x1="533.3" y1="0" x2="533.3" y2="1000" stroke="#ffffff" stroke-width="0.5" opacity="0.045"/><line x1="666.7" y1="0" x2="666.7" y2="1000" stroke="#ffffff" stroke-width="0.5" opacity="0.045"/><line x1="800.0" y1="0" x2="800.0" y2="1000" stroke="#ffffff" stroke-width="0.5" opacity="0.045"/><line x1="933.3" y1="0" x2="933.3" y2="1000" stroke="#ffffff" stroke-width="0.5" opacity="0.045"/><line x1="1066.7" y1="0" x2="1066.7" y2="1000" stroke="#ffffff" stroke-width="0.5" opacity="0.045"/><line x1="1200.0" y1="0" x2="1200.0" y2="1000" stroke="#ffffff" stroke-width="0.5" opacity="0.045"/><line x1="1333.3" y1="0" x2="1333.3" y2="1000" stroke="#ffffff" stroke-width="0.5" opacity="0.045"/><line x1="1466.7" y1="0" x2="1466.7" y2="1000" stroke="#ffffff" stroke-width="0.5" opacity="0.045"/>
  <rect width="1600" height="1000" fill="url(#g1068r)"/>
  <g><circle cx="800" cy="500" r="140.0" fill="none" stroke="url(#g1068s)" stroke-width="1.40" opacity="0.500"/><circle cx="800" cy="500" r="195.0" fill="none" stroke="url(#g1068s)" stroke-width="1.28" opacity="0.445"/><circle cx="800" cy="500" r="250.0" fill="none" stroke="url(#g1068s)" stroke-width="1.16" opacity="0.390"/><circle cx="800" cy="500" r="305.0" fill="none" stroke="url(#g1068s)" stroke-width="1.04" opacity="0.335"/><circle cx="800" cy="500" r="360.0" fill="none" stroke="url(#g1068s)" stroke-width="0.92" opacity="0.280"/><circle cx="800" cy="500" r="415.0" fill="none" stroke="url(#g1068s)" stroke-width="0.80" opacity="0.225"/><circle cx="800" cy="500" r="470.0" fill="none" stroke="url(#g1068s)" stroke-width="0.68" opacity="0.170"/><rect x="30.8" y="716.4" width="2" height="283.6" fill="url(#g1068s)" opacity="0.107"/><rect x="92.3" y="653.0" width="2" height="347.0" fill="url(#g1068s)" opacity="0.207"/><rect x="153.8" y="758.1" width="2" height="241.9" fill="url(#g1068s)" opacity="0.337"/><rect x="215.4" y="788.0" width="2" height="212.0" fill="url(#g1068s)" opacity="0.335"/><rect x="276.9" y="429.3" width="2" height="570.7" fill="url(#g1068s)" opacity="0.308"/><rect x="338.5" y="743.8" width="2" height="256.2" fill="url(#g1068s)" opacity="0.139"/><rect x="400.0" y="626.9" width="2" height="373.1" fill="url(#g1068s)" opacity="0.186"/><rect x="461.5" y="454.1" width="2" height="545.9" fill="url(#g1068s)" opacity="0.199"/><rect x="523.1" y="787.0" width="2" height="213.0" fill="url(#g1068s)" opacity="0.390"/><rect x="584.6" y="511.9" width="2" height="488.1" fill="url(#g1068s)" opacity="0.339"/><rect x="646.2" y="585.5" width="2" height="414.5" fill="url(#g1068s)" opacity="0.101"/><rect x="707.7" y="506.9" width="2" height="493.1" fill="url(#g1068s)" opacity="0.202"/><rect x="769.2" y="877.4" width="2" height="122.6" fill="url(#g1068s)" opacity="0.301"/><rect x="830.8" y="911.8" width="2" height="88.2" fill="url(#g1068s)" opacity="0.244"/><rect x="892.3" y="694.4" width="2" height="305.6" fill="url(#g1068s)" opacity="0.383"/><rect x="953.8" y="900.9" width="2" height="99.1" fill="url(#g1068s)" opacity="0.321"/><rect x="1015.4" y="488.7" width="2" height="511.3" fill="url(#g1068s)" opacity="0.341"/><rect x="1076.9" y="834.9" width="2" height="165.1" fill="url(#g1068s)" opacity="0.161"/><rect x="1138.5" y="670.6" width="2" height="329.4" fill="url(#g1068s)" opacity="0.183"/><rect x="1200.0" y="776.6" width="2" height="223.4" fill="url(#g1068s)" opacity="0.127"/><rect x="1261.5" y="822.9" width="2" height="177.1" fill="url(#g1068s)" opacity="0.158"/><rect x="1323.1" y="495.3" width="2" height="504.7" fill="url(#g1068s)" opacity="0.112"/><rect x="1384.6" y="789.4" width="2" height="210.6" fill="url(#g1068s)" opacity="0.101"/><rect x="1446.2" y="477.1" width="2" height="522.9" fill="url(#g1068s)" opacity="0.307"/><rect x="1507.7" y="517.4" width="2" height="482.6" fill="url(#g1068s)" opacity="0.310"/><rect x="1569.2" y="478.6" width="2" height="521.4" fill="url(#g1068s)" opacity="0.330"/></g>
  <rect width="1600" height="1000" filter="url(#g1068n)" opacity="0.06"/>

  <!-- No baked-in label: project titles are rendered as HTML over the image. -->
</svg>
